<svg width="134" height="34" viewBox="0 0 134 34" fill="none" xmlns="http://www.w3.org/2000/svg">
<path d="M65.9677 5.04965C65.6579 8.09511 68.2388 10.676 71.2843 10.3663C73.5555 10.1598 75.4137 8.30158 75.6202 6.03039C75.9299 2.98494 73.349 0.404043 70.3036 0.71375C68.0324 0.920221 66.1741 2.77846 65.9677 5.04965Z" fill="url(#paint0_linear_124_226)"/>
<path d="M59.6186 22.3422L65.1934 16.8191L50.2242 1.84988C48.6756 0.301343 46.198 0.301343 44.7011 1.84988C43.1525 3.39841 43.1525 5.87607 44.7011 7.37299L54.1471 16.8191L44.6494 26.2135C43.1009 27.762 43.1009 30.2397 44.6494 31.7366C46.198 33.2852 48.6756 33.2852 50.1726 31.7366L59.6186 22.3422Z" fill="url(#paint1_linear_124_226)"/>
<path d="M74.5878 26.2131L68.5485 20.1738L63.0254 25.6969L69.0647 31.7362C70.6132 33.2848 73.0909 33.2848 74.5878 31.7362C76.1363 30.2393 76.1363 27.7617 74.5878 26.2131Z" fill="url(#paint2_linear_124_226)"/>
<path d="M87.802 0.818359C85.5824 0.818359 83.8274 2.62498 83.8274 4.79293V33.286H91.8282V4.79293C91.7765 2.57337 89.9699 0.818359 87.802 0.818359Z" fill="url(#paint3_linear_124_226)"/>
<path d="M116.45 0.0947266C106.281 0.0947266 98.8481 7.21799 98.8481 17.0254C98.8481 26.936 106.075 33.8528 116.45 33.9044C126.773 33.9044 134 26.9876 134 17.0254C134 7.06314 126.773 0.0947266 116.45 0.0947266ZM116.398 27.1425C110.927 27.1425 107.055 22.8582 107.055 17.0254C107.055 11.2442 110.72 6.85667 116.398 6.85667C122.076 6.85667 125.793 11.141 125.793 17.0254C125.793 22.9098 121.818 27.1425 116.398 27.1425Z" fill="url(#paint4_linear_124_226)"/>
<path d="M26.9445 4.7395V6.80421C26.9445 6.80421 22.6086 0.145508 14.7627 0.145508C6.19415 0.145508 0 7.21716 0 17.0246C0 26.7803 6.19415 33.852 14.7627 33.9036C22.6086 33.9036 26.9445 27.1933 26.9445 27.1933V33.2842H34.9453V17.0246V4.7395C34.9453 2.51993 33.1387 0.764922 30.9707 0.764922C28.6995 0.764922 26.9445 2.51993 26.9445 4.7395ZM26.9445 17.0246C26.9445 23.0638 22.8151 27.1417 17.6017 27.1417C12.0786 27.1417 8.20724 22.7025 8.20724 17.0246C8.20724 11.3982 12.0786 6.90745 17.6017 6.90745C22.8151 6.90745 26.9445 10.9336 26.9445 17.0246Z" fill="url(#paint5_linear_124_226)"/>
<defs>
<linearGradient id="paint0_linear_124_226" x1="-13.5306" y1="5.5442" x2="143.995" y2="5.5442" gradientUnits="userSpaceOnUse">
<stop stop-color="#B1D235"/>
<stop offset="0.4514" stop-color="#72BF44"/>
</linearGradient>
<linearGradient id="paint1_linear_124_226" x1="-13.5307" y1="16.8067" x2="143.995" y2="16.8067" gradientUnits="userSpaceOnUse">
<stop stop-color="#B1D235"/>
<stop offset="0.4514" stop-color="#72BF44"/>
</linearGradient>
<linearGradient id="paint2_linear_124_226" x1="-13.5307" y1="26.5557" x2="143.995" y2="26.5557" gradientUnits="userSpaceOnUse">
<stop stop-color="#B1D235"/>
<stop offset="0.4514" stop-color="#72BF44"/>
</linearGradient>
<linearGradient id="paint3_linear_124_226" x1="-13.5307" y1="17.0391" x2="143.995" y2="17.0391" gradientUnits="userSpaceOnUse">
<stop stop-color="#B1D235"/>
<stop offset="0.4514" stop-color="#72BF44"/>
</linearGradient>
<linearGradient id="paint4_linear_124_226" x1="-13.5307" y1="17.0042" x2="143.995" y2="17.0042" gradientUnits="userSpaceOnUse">
<stop stop-color="#B1D235"/>
<stop offset="0.4514" stop-color="#72BF44"/>
</linearGradient>
<linearGradient id="paint5_linear_124_226" x1="-13.5306" y1="17.0215" x2="143.995" y2="17.0215" gradientUnits="userSpaceOnUse">
<stop stop-color="#B1D235"/>
<stop offset="0.4514" stop-color="#72BF44"/>
</linearGradient>
</defs>
</svg>
